# AST/ASF file generated using VICON BodyLanguage
# -----------------------------------------------
:version 1.10
:name VICON
:units
  mass 1.0
  length 0.45
  angle deg
:documentation
   .ast/.asf automatically generated from VICON data using
   VICON BodyBuilder and BodyLanguage model FoxedUp or BRILLIANT.MOD
:root
   order TX TY TZ RX RY RZ
   axis XYZ
   position 0 0 0  
   orientation 0 0 0 
:bonedata
  begin
     id 1 
     name lhipjoint
     direction 0.606768 -0.715223 0.346827 
     length 2.41543 
     axis 0 0 0  XYZ
  end
  begin
     id 2 
     name lfemur
     direction 0.34202 -0.939693 0  
     length 7.2778  
     axis 0 0 20  XYZ
    dof rx ry rz
    limits (-160.0 20.0)
           (-70.0 70.0)
           (-60.0 70.0)
  end
  begin
     id 3 
     name ltibia
     direction 0.34202 -0.939693 0   
     length 7.61811   
     axis 0 0 20   XYZ
    dof rx
    limits (-10.0 170.0)
  end
  begin
     id 4 
     name lfoot
     direction 0.0823924 -0.226371 0.97055   
     length 2.33618   
     axis -90 7.62852e-016 20   XYZ
    dof rx rz
    limits (-45.0 90.0)
           (-70.0 20.0)
  end
  begin
     id 5 
     name ltoes
     direction 1.53554e-011 -4.21934e-011 1   
     length 1.17015   
     axis -90 7.62852e-016 20   XYZ
    dof rx
    limits (-90.0 20.0)
  end
  begin
     id 6 
     name rhipjoint
     direction -0.6077 -0.714582 0.346516   
     length 2.4176  
     axis 0 0 0  XYZ 
  end
  begin
     id 7 
     name rfemur
     direction -0.34202 -0.939693 0   
     length 7.28127   
     axis 0 0 -20   XYZ
    dof rx ry rz
    limits (-160.0 20.0)
           (-70.0 70.0)
           (-70.0 60.0)
  end
  begin
     id 8 
     name rtibia
     direction -0.34202 -0.939693 0   
     length 7.77648   
     axis 0 0 -20   XYZ
    dof rx
    limits (-10.0 170.0)
 end
 begin
     id 9 
     name rfoot
     direction -0.0809463 -0.222398 0.97159   
     length 2.37533  
     axis -90 -7.62852e-016 -20   XYZ
    dof rx rz
    limits (-45.0 90.0)
           (-20.0 70.0)
  end
  begin
     id 10 
     name rtoes
     direction -1.53568e-011 -4.21714e-011 1   
     length 1.18972   
     axis -90 -7.62852e-016 -20   XYZ
    dof rx
    limits (-90.0 20.0)
  end
  begin
     id 11 
     name lowerback
     direction 0.010968 0.991932 -0.126297   
     length 2.21698   
     axis 0 0 0   XYZ
    dof rx ry rz
    limits (-20.0 45.0)
           (-30.0 30.0)
           (-30.0 30.0)
  end
  begin
     id 12 
     name upperback
     direction 0.0167007 0.997503 -0.0686276   
     length 2.22371   
     axis 0 0 0   XYZ
    dof rx ry rz
    limits (-20.0 45.0)
           (-30.0 30.0)
           (-30.0 30.0)
  end
  begin
     id 13 
     name thorax
     direction 0.0111721 0.999885 -0.0102878   
     length 2.25242   
     axis 0 0 0   XYZ
    dof rx ry rz
    limits (-20.0 45.0)
           (-30.0 30.0)
           (-30.0 30.0)
  end
  begin
     id 14 
     name lowerneck
     direction -0.0120265 0.990428 0.137508   
     length 1.57674   
     axis 0 0 0   XYZ
    dof rx ry rz
    limits (-20.0 45.0)
           (-30.0 30.0)
           (-30.0 30.0)
  end
  begin
     id 15 
     name upperneck
     direction 0.0175669 0.998907 0.0433089   
     length 1.5618   
     axis 0 0 0   XYZ
    dof rx ry rz
    limits (-20.0 45.0)
           (-30.0 30.0)
           (-30.0 30.0)
  end
  begin
     id 16
     name head
     direction 0.00754609 0.99997 0.00185367  
     length 1.60579  
     axis 0 0 0   XYZ
    dof rx ry rz
    limits (-20.0 45.0)
           (-30.0 30.0)
           (-30.0 30.0)
  end
  begin
     id 17 
     name lclavicle
     direction 0.885866 0.429166 -0.176231  
     length 3.44967  
     axis 0 0 0   XYZ
    dof ry rz
    limits (-20.0 10.0)
           (0.0 20.0)
  end
  begin
     id 18 
     name lhumerus
     direction 1 -4.48973e-011 -1.90255e-027   
     length 5.20607   
     axis 180 -30 -90   XYZ
    dof rx ry rz
    limits (-60.0 90.0)
           (-90.0 90.0)
           (-90.0 90.0)
  end
  begin
     id 19
     name lradius
     direction 1 -4.48956e-011 9.87925e-027   
     length 3.39961   
     axis 180 -30 -90   XYZ
    dof rx
    limits (-10.0 170.0)
  end
  begin
     id 20
     name lwrist
     direction 1 -4.48985e-011 1.73247e-026   
     length 1.6998   
     axis -9.60847e-015 90 90   XYZ
    dof ry
    limits (-180.0 0.0)
 end
  begin
     id 21 
     name lhand
     direction 1 -4.48798e-011 3.46119e-026   
     length 0.519693   
     axis -2.21073e-014 90 90   XYZ
    dof rx rz
    limits (-90.0 90.0)
           (-45.0 45.0)
  end
  begin
     id 22 
     name lfingers
     direction 1 -4.48938e-011 6.92797e-026   
     length 0.41899   
     axis -4.42155e-014 90 90   XYZ
    dof rx
    limits (0.0 90.0)
  end
  begin
     id 23
     name lthumb
     direction 0.707107 -6.34952e-011 0.707107   
     length 0.601588   
     axis -90 45 6.0103e-014   XYZ
    dof rx rz
    limits (-45.0 45.0)
           (-45.0 45.0)
  end
  begin
     id 24 
     name rclavicle
     direction -0.866736 0.456792 -0.200276   
     length 3.45032  
     axis 0 0 0   XYZ 
    dof ry rz
    limits (-10.0 20.0)
           (-20.0 0.0)
  end
  begin
     id 25 
     name rhumerus
     direction -1 -4.4897e-011 8.65094e-028  
     length 5.32214   
     axis 180 30 90   XYZ
    dof rx ry rz
    limits (-90.0 60.0)
           (-90.0 90.0)
           (-90.0 90.0)
  end
  begin
     id 26 
     name rradius
     direction -1 -4.48987e-011 1.08427e-026   
     length 3.51208   
     axis 180 30 90   XYZ
    dof rx
    limits (-10.0 170.0)
  end
  begin
     id 27 
     name rwrist
     direction -1 -4.48961e-011 1.73222e-026   
     length 1.75604   
     axis -9.60847e-015 -90 -90   XYZ
    dof ry
    limits (-180.0 0.0)
  end
  begin
     id 28
     name rhand
     direction -1 -4.48895e-011 3.46314e-026   
     length 0.586681   
     axis -2.21073e-014 -90 -90   XYZ
    dof rx rz
    limits (-90.0 90.0)
           (-45.0 45.0)
  end
  begin
     id 29
     name rfingers
     direction -1 -4.48968e-011 6.92916e-026   
     length 0.472997   
     axis -4.42155e-014 -90 -90   XYZ
    dof rx
    limits (0.0 90.0)
  end
  begin
     id 30
     name rthumb
     direction -0.707107 -6.34848e-011 0.707107   
     length 0.679133   
     axis -90 -45 -6.0103e-014   XYZ
    dof rx rz
    limits (-45.0 45.0)
           (-45.0 45.0)
  end
:hierarchy
  begin
    root lhipjoint rhipjoint lowerback
    lhipjoint lfemur
    lfemur ltibia
    ltibia lfoot
    lfoot ltoes
    rhipjoint rfemur
    rfemur rtibia
    rtibia rfoot
    rfoot rtoes
    lowerback upperback
    upperback thorax
    thorax lowerneck lclavicle rclavicle
    lowerneck upperneck
    upperneck head
    lclavicle lhumerus
    lhumerus lradius
    lradius lwrist
    lwrist lhand lthumb
    lhand lfingers
    rclavicle rhumerus
    rhumerus rradius
    rradius rwrist
    rwrist rhand rthumb
    rhand rfingers
  end

#!OML:ASF H:\Dans Jumps\Project 1\Capture day 1\Session 1\subject.ASF
:FULLY-SPECIFIED
:DEGREES
17
root 0.0536728 17.594 -14.3021 7.64414 -0.152385 -1.67996
lowerback 0.698077 -0.579681 0.473013
upperback 5.42941 -0.870093 1.93333
thorax 5.2422 -0.462171 1.70349
lowerneck -12.0833 0.512745 -2.31587
upperneck 34.2502 1.19481 0.479745
head 13.5567 0.280828 0.775133
rclavicle -6.85807e-015 1.43125e-014
rhumerus -19.6347 -18.4508 -80.6749
rradius 23.1698
rwrist 32.1007
rhand -19.1823 -26.9471
rfingers 7.12502
rthumb 7.12918 -56.8071
lclavicle -6.85807e-015 1.43125e-014
lhumerus -16.7845 -0.759415 88.4345
lradius 17.507
lwrist 2.32576
lhand -25.2911 -2.95972
lfingers 7.12502
lthumb 1.23045 27.0165
rfemur -16.6887 -3.49396 20.6677
rtibia 22.5584
rfoot -12.5881 -2.10157
rtoes 12.4943
lfemur -15.6367 6.55996 -17.5508
ltibia 20.5877
lfoot -10.2884 4.49525
ltoes 0.0301391
18
root 0.0580064 17.5938 -14.3042 7.64258 -0.151435 -1.68343
lowerback 0.711257 -0.581856 0.48718
upperback 5.42642 -0.873085 1.93451
thorax 5.2314 -0.463013 1.69676
lowerneck -12.0814 0.509569 -2.3198
upperneck 34.2209 1.19589 0.465231
head 13.5435 0.279246 0.769965
rclavicle -1.78906e-015 -5.96354e-015
rhumerus -19.6445 -18.4844 -80.6763
rradius 23.1578
rwrist 32.1191
rhand -19.1965 -26.9318
rfingers 7.12502
rthumb 7.11545 -56.7922
lclavicle -1.78906e-015 -5.96354e-015
lhumerus -16.7742 -0.731597 88.4237
lradius 17.5057
lwrist 2.3244
lhand -25.2831 -2.93977
lfingers 7.12502
lthumb 1.23811 27.0364
rfemur -16.6911 -3.47391 20.6547
rtibia 22.5534
rfoot -12.5817 -2.12843
rtoes 12.4297
lfemur -15.6519 6.56753 -17.5634
ltibia 20.6015
lfoot -10.2909 4.48329
ltoes 0.03421
19
root 0.06243 17.5937 -14.306 7.64276 -0.155775 -1.68457
lowerback 0.718235 -0.581033 0.501468
upperback 5.42501 -0.872119 1.93347
thorax 5.22567 -0.461837 1.68776
lowerneck -12.0797 0.504881 -2.32413
upperneck 34.1933 1.19343 0.454942
head 13.5312 0.276629 0.766047
rclavicle -1.70955e-014 1.19271e-014
rhumerus -19.6523 -18.5202 -80.6776
rradius 23.1444
rwrist 32.1371
rhand -19.2051 -26.9203
rfingers 7.12502
rthumb 7.10715 -56.781
lclavicle -1.70955e-014 1.19271e-014
lhumerus -16.7611 -0.709017 88.4154
lradius 17.502
lwrist 2.32483
lhand -25.2724 -2.90266
lfingers 7.12502
lthumb 1.2485 27.0734
rfemur -16.6954 -3.45506 20.6385
rtibia 22.5493
rfoot -12.5727 -2.14864
rtoes 12.3587
lfemur -15.6631 6.57816 -17.5794
ltibia 20.6089
lfoot -10.2948 4.47202
ltoes 0.047433
20
root 0.0668403 17.5938 -14.3079 7.64753 -0.164131 -1.68406
lowerback 0.7198 -0.577344 0.515705
upperback 5.4234 -0.867328 1.93046
thorax 5.22266 -0.458714 1.67687
lowerneck -12.0835 0.498623 -2.32748
upperneck 34.1715 1.18695 0.449623
head 13.5225 0.272969 0.763425
rclavicle -1.98785e-015 7.95139e-016
rhumerus -19.6594 -18.5541 -80.68
rradius 23.1345
rwrist 32.1524
rhand -19.2029 -26.9154
rfingers 7.12502
rthumb 7.10929 -56.776
lclavicle -1.98785e-015 7.95139e-016
lhumerus -16.7478 -0.688362 88.4088
lradius 17.4969
lwrist 2.32048
lhand -25.2635 -2.85871
lfingers 7.12502
lthumb 1.25704 27.1173
rfemur -16.7063 -3.43677 20.6209
rtibia 22.5477
rfoot -12.5633 -2.16542
rtoes 12.287
lfemur -15.6756 6.59065 -17.5978
ltibia 20.611
lfoot -10.2983 4.46165
ltoes 0.060779
